<?xml version="1.0" encoding="UTF-8"?>
<svg xmlns="http://www.w3.org/2000/svg" xmlns:xlink="http://www.w3.org/1999/xlink" width="115px" height="115px" viewBox="0 0 115 115" version="1.1">
<g id="surface1">
<path style=" stroke:none;fill-rule:nonzero;fill:rgb(100%,76.078433%,0%);fill-opacity:1;" d="M 67.082031 43.125 C 67.082031 45.601562 64.582031 47.714844 63.972656 50 C 63.339844 52.363281 64.429688 55.4375 63.234375 57.507812 C 62.019531 59.605469 58.800781 60.191406 57.097656 61.894531 C 55.394531 63.59375 54.808594 66.8125 52.710938 68.027344 C 50.640625 69.222656 47.566406 68.132812 45.203125 68.765625 C 42.921875 69.375 40.808594 71.875 38.332031 71.875 C 35.855469 71.875 33.742188 69.375 31.457031 68.765625 C 29.097656 68.132812 26.019531 69.222656 23.953125 68.023438 C 21.855469 66.8125 21.269531 63.589844 19.566406 61.886719 C 17.863281 60.1875 14.644531 59.597656 13.429688 57.5 C 12.234375 55.433594 13.324219 52.359375 12.691406 49.996094 C 12.082031 47.714844 9.582031 45.601562 9.582031 43.125 C 9.582031 40.648438 12.082031 38.535156 12.695312 36.25 C 13.324219 33.886719 12.238281 30.8125 13.433594 28.742188 C 14.648438 26.644531 17.867188 26.058594 19.570312 24.355469 C 21.273438 22.65625 21.859375 19.4375 23.957031 18.222656 C 26.023438 17.027344 29.101562 18.117188 31.460938 17.484375 C 33.746094 16.875 35.859375 14.375 38.332031 14.375 C 40.808594 14.375 42.925781 16.875 45.207031 17.484375 C 47.570312 18.117188 50.648438 17.027344 52.714844 18.226562 C 54.8125 19.4375 55.398438 22.660156 57.101562 24.363281 C 58.804688 26.0625 62.023438 26.652344 63.234375 28.75 C 64.433594 30.816406 63.34375 33.890625 63.972656 36.253906 C 64.585938 38.535156 67.082031 40.648438 67.082031 43.125 Z M 67.082031 43.125 "/>
<path style=" stroke:none;fill-rule:nonzero;fill:rgb(97.647059%,54.509807%,0%);fill-opacity:1;" d="M 57.5 43.125 C 57.5 32.539062 48.917969 23.957031 38.332031 23.957031 C 27.746094 23.957031 19.167969 32.539062 19.167969 43.125 C 19.167969 53.710938 27.746094 62.292969 38.332031 62.292969 C 48.917969 62.292969 57.5 53.710938 57.5 43.125 Z M 57.5 43.125 "/>
<path style=" stroke:none;fill-rule:nonzero;fill:rgb(100%,63.921571%,0%);fill-opacity:1;" d="M 37.574219 29.511719 C 35.796875 27.734375 31.480469 29.175781 27.933594 32.722656 C 24.382812 36.273438 22.945312 40.589844 24.71875 42.363281 C 26.492188 44.140625 30.808594 42.699219 34.359375 39.152344 C 37.910156 35.601562 39.347656 31.285156 37.574219 29.511719 Z M 37.574219 29.511719 "/>
<path style=" stroke:none;fill-rule:nonzero;fill:rgb(73.725492%,77.254903%,100%);fill-opacity:1;" d="M 100.457031 67.910156 C 100.570312 66.839844 100.625 65.765625 100.625 64.6875 C 100.625 47.484375 86.679688 33.542969 69.480469 33.542969 C 54.890625 33.542969 42.683594 43.585938 39.296875 57.121094 C 31.8125 51.46875 21.527344 51.3125 13.875 56.738281 C 6.21875 62.160156 2.957031 71.914062 5.8125 80.851562 C 8.664062 89.785156 16.972656 95.847656 26.355469 95.832031 L 95.832031 95.832031 C 102.863281 95.851562 108.867188 90.773438 110.015625 83.839844 C 111.164062 76.90625 107.117188 70.160156 100.457031 67.910156 Z M 100.457031 67.910156 "/>
<path style=" stroke:none;fill-rule:nonzero;fill:rgb(83.92157%,87.058824%,100%);fill-opacity:1;" d="M 86.25 62.292969 C 86.265625 50.117188 77.136719 39.875 65.042969 38.488281 C 52.949219 37.101562 41.742188 45.019531 39 56.878906 C 31.453125 51.386719 21.222656 51.382812 13.671875 56.871094 C 6.117188 62.355469 2.960938 72.085938 5.847656 80.960938 C 8.738281 89.839844 17.019531 95.84375 26.355469 95.832031 C 36.078125 95.832031 44.203125 89.351562 46.890625 80.503906 C 51.066406 84.039062 56.394531 86.25 62.292969 86.25 C 66.238281 86.222656 70.117188 85.210938 73.570312 83.304688 C 76.84375 89.539062 84.152344 92.480469 90.828125 90.246094 C 97.503906 88.015625 101.574219 81.269531 100.4375 74.320312 C 99.296875 67.375 93.289062 62.277344 86.25 62.292969 Z M 86.25 62.292969 "/>
<path style=" stroke:none;fill-rule:nonzero;fill:rgb(93.725491%,94.901961%,100%);fill-opacity:1;" d="M 89.832031 68.292969 C 87.632812 66.089844 83.171875 66.980469 79.867188 70.285156 C 76.566406 73.585938 75.671875 78.050781 77.875 80.25 C 80.074219 82.453125 84.539062 81.558594 87.839844 78.257812 C 91.144531 74.953125 92.035156 70.492188 89.832031 68.292969 Z M 89.832031 68.292969 "/>
<path style=" stroke:none;fill-rule:nonzero;fill:rgb(93.725491%,94.901961%,100%);fill-opacity:1;" d="M 65.070312 45.136719 C 61.402344 41.46875 53.964844 42.957031 48.460938 48.460938 C 42.957031 53.964844 41.46875 61.402344 45.136719 65.070312 C 48.808594 68.738281 56.242188 67.253906 61.75 61.75 C 67.253906 56.242188 68.738281 48.808594 65.070312 45.136719 Z M 65.070312 45.136719 "/>
<path style=" stroke:none;fill-rule:nonzero;fill:rgb(93.725491%,94.901961%,100%);fill-opacity:1;" d="M 27.140625 63.902344 C 24.203125 60.964844 18.253906 62.15625 13.851562 66.558594 C 9.449219 70.964844 8.257812 76.914062 11.195312 79.847656 C 14.128906 82.785156 20.078125 81.59375 24.480469 77.191406 C 28.886719 72.785156 30.074219 66.835938 27.140625 63.902344 Z M 27.140625 63.902344 "/>
</g>
</svg>
